***************************************************************

[IMG]http://www.hotimg.org/images/67363952943939111394.png[/IMG]

***************************************************************

[IMG]http://www.hotimg.org/images/04332460496247014904.jpg[/IMG]

***************************************************************

FILM TITLE: The Debt (2010)

***************************************************************

Genre: Action | Drama | Thriller    

Release: 31 August 2011 (USA) 

Director: John Madden

Writer: Matthew Vaughn (screenplay), Jane Goldman (screenplay)

Stars: Helen Mirren, Sam Worthington and Tom Wilkinson 

Country: USA 

Language: English | German | Ukrainian 

Plot:
The espionage thriller begins in 1997, as shocking news reaches retired 
Mossad secret agents Rachel (Helen Mirren) and Stefan (Tom Wilkinson) 
about their former colleague David (Ciarán Hinds).

IMDB Rating: 7.0/10 from 19,036 users   Metascore: 65/100
 
http://www.imdb.com/title/tt1226753/

****************************************************************

[URL=http://www.hotimg.org/viewer.php?file=57533585284325703942.png][IMG]http://www.hotimg.org/images/57533585284325703942_thumb.png[/IMG][/URL]
[URL=http://www.hotimg.org/viewer.php?file=64960640163399854658.png][IMG]http://www.hotimg.org/images/64960640163399854658_thumb.png[/IMG][/URL]
[URL=http://www.hotimg.org/viewer.php?file=08851982439714823575.png][IMG]http://www.hotimg.org/images/08851982439714823575_thumb.png[/IMG][/URL]
[URL=http://www.hotimg.org/viewer.php?file=81954377937299111879.png][IMG]http://www.hotimg.org/images/81954377937299111879_thumb.png[/IMG][/URL]

****************************************************************

General
Complete name                    : The Debt 2010 720p BDRip x264 (mp4) [GREYSHADOW].mp4
Format                           : MPEG-4
Format profile                   : Base Media
Codec ID                         : isom
File size                        : 3.68 GiB
Duration                         : 1h 53mn
Overall bit rate                 : 4642 Kbps
Encoded date                     : UTC 2012-02-06 17:00:14
Tagged date                      : UTC 2012-02-06 17:00:14

Video
ID                               : 1
Format                           : AVC
Format/Info                      : Advanced Video Codec
Format profile                   : High@L4.1
Format settings, CABAC           : Yes
Format settings, ReFrames        : 12 frames
Codec ID                         : avc1
Codec ID/Info                    : Advanced Video Coding
Duration                         : 1h 53mn
Bit rate                         : 4000 Kbps
Maximum bit rate                 : 20.2 Mbps
Width                            : 1280 pixels
Height                           : 528 pixels
Display aspect ratio             : 2.40:1
Frame rate mode                  : Constant
Frame rate                       : 23.976 fps
Color space                      : YUV
Chroma subsampling               : 4:2:0
Bit depth                        : 8 bits
Scan type                        : Progressive
Bits/(Pixel*Frame)               : 0.247
Stream size                      : 3.17 GiB (86%)
Title                            : AVC MPEG4 Video
Writing library                  : x264 core 120 r2146 bcd41db
Encoded date                     : UTC 2012-02-05 14:58:05
Tagged date                      : UTC 2012-02-06 17:02:03
Color primaries                  : BT.709-5, BT.1361, IEC 61966-2-4, SMPTE RP177
Transfer characteristics         : BT.709-5, BT.1361
Matrix coefficients              : BT.709-5, BT.1361, IEC 61966-2-4 709, SMPTE RP177

Audio
ID                               : 2
Format                           : AC-3
Format/Info                      : Audio Coding 3
Mode extension                   : CM (complete main)
Codec ID                         : ac-3
Duration                         : 1h 53mn
Bit rate mode                    : Constant
Bit rate                         : 640 Kbps
Channel(s)                       : 6 channels
Channel positions                : Front: L C R, Side: L R, LFE
Sampling rate                    : 48.0 KHz
Bit depth                        : 16 bits
Compression mode                 : Lossy
Stream size                      : 519 MiB (14%)
Title                            : English AC3 5.1 640 kbps Audio
Language                         : English
Encoded date                     : UTC 2012-02-06 17:02:00
Tagged date                      : UTC 2012-02-06 17:02:03

****************************************************************

Video Source: The Debt 2010 1080p Blu-ray VC-1 DTS-HD MA5.1-shhaclm@CHDBits (31.9GB)

Thanks: Medishack (blu-torrents.net)

****************************************************************

I provide a small sample, so please download this to check your 
compatibility first if you are unsure.

****************************************************************

Hash: CA84EE91A3AE78B069641AFD7F7F6EA47DE9C4CC

Trackers:
.udp://tracker.1337x.org:80/announce

****************************************************************